<?xml version="1.0" encoding="UTF-8"?>
<svg xmlns="http://www.w3.org/2000/svg" viewBox="-220.3984 -220.4297 1403.9648 1404.0273" width="1403.9648" height="1404.0273" fill="none">
  <path fill="#020202" fill-rule="nonzero" d="M 697.253906 572.664062 C 685.476562 600.527344 668.59375 625.570312 647.109375 647.074219 C 625.621094 668.539062 600.601562 685.421875 572.734375 697.203125 C 543.863281 709.417969 513.21875 715.609375 481.625 715.609375 C 450.035156 715.609375 419.386719 709.417969 390.539062 697.203125 C 362.652344 685.421875 337.632812 668.539062 316.144531 647.074219 C 294.660156 625.570312 277.777344 600.527344 266 572.664062 C 254.621094 545.78125 248.46875 517.347656 247.695312 488.039062 L 247.589844 488.039062 L 247.589844 481.574219 C 247.589844 479.417969 247.632812 477.265625 247.695312 475.109375 C 248.46875 445.800781 254.621094 417.371094 266 390.488281 C 277.777344 362.621094 294.660156 337.578125 316.144531 316.09375 C 337.632812 294.609375 362.652344 277.726562 390.539062 265.949219 C 419.386719 253.730469 450.035156 247.558594 481.625 247.558594 C 513.21875 247.558594 543.863281 253.730469 572.734375 265.949219 C 600.601562 277.726562 625.621094 294.609375 647.109375 316.09375 C 673.570312 342.558594 688.632812 371.238281 695.164062 385.570312 C 695.558594 386.46875 695.746094 387.390625 695.746094 388.269531 C 695.746094 391.722656 692.984375 394.796875 689.242188 394.796875 C 686.648438 394.796875 684.34375 393.25 683.28125 390.90625 C 648.59375 314.066406 571.269531 260.46875 481.625 260.46875 C 361.859375 260.46875 264.035156 356.179688 260.601562 475.109375 L 260.519531 475.109375 C 260.457031 477.265625 260.414062 479.417969 260.414062 481.574219 C 260.414062 483.730469 260.457031 485.886719 260.519531 488.039062 C 263.929688 607.957031 362.210938 704.148438 482.964844 704.148438 C 487.503906 704.148438 492.003906 704 496.457031 703.730469 C 635.265625 695.421875 627.984375 488.039062 488.949219 488.039062 L 478.964844 488.039062 C 470.304688 488.039062 461.714844 489.578125 453.59375 492.578125 C 452.570312 492.976562 451.730469 493.773438 451.355469 494.839844 L 443.925781 514.921875 C 442.695312 518.226562 438.007812 518.226562 436.773438 514.921875 L 429.347656 494.839844 C 428.96875 493.773438 428.152344 492.976562 427.109375 492.578125 L 407.023438 485.132812 C 406.792969 485.070312 406.585938 484.964844 406.398438 484.859375 C 403.90625 483.414062 403.90625 479.734375 406.398438 478.3125 C 406.585938 478.207031 406.792969 478.101562 407.023438 478.019531 L 427.109375 470.570312 C 428.152344 470.195312 428.96875 469.378906 429.347656 468.332031 L 436.773438 448.226562 C 438.007812 444.941406 442.695312 444.941406 443.925781 448.226562 L 451.355469 468.332031 C 451.730469 469.378906 452.570312 470.195312 453.59375 470.570312 C 461.714844 473.574219 470.304688 475.109375 478.964844 475.109375 L 715.578125 475.109375 C 715.636719 478.019531 714.265625 532.414062 697.253906 572.664062 "/>
  <path fill="#020202" fill-rule="nonzero" d="M 662.269531 429.328125 L 680.097656 429.328125 L 680.097656 430.195312 L 662.269531 430.195312 Z M 670.441406 430.195312 L 671.367188 430.195312 L 671.367188 450.996094 L 670.441406 450.996094 Z M 670.441406 430.195312 "/>
  <path fill="#020202" fill-rule="nonzero" d="M 684.304688 450.996094 L 684.304688 429.328125 L 685.820312 429.328125 L 693.21875 446.632812 L 694.425781 449.539062 L 695.203125 447.652344 L 695.664062 446.601562 L 703.0625 429.328125 L 704.515625 429.328125 L 704.515625 450.996094 L 703.589844 450.996094 L 703.589844 430.351562 L 694.796875 450.996094 L 694.023438 450.996094 L 685.234375 430.320312 L 685.234375 450.996094 Z M 684.304688 450.996094 "/>
</svg>
